<svg width="183" height="256" viewBox="0 0 183 256" fill="none" xmlns="http://www.w3.org/2000/svg">
<path d="M0 35C0 30.0294 4.02944 26 9 26H20.3313H36.2441C37.9009 26 39.2441 27.3431 39.2441 29V35C39.2441 36.6569 37.9009 38 36.2441 38H19.7661C15.9001 38 12.7661 41.134 12.7661 45V236C12.7661 239.866 15.9001 243 19.7661 243H163.688C167.554 243 170.688 239.866 170.688 236V45C170.688 41.134 167.554 38 163.688 38H145.792C144.135 38 142.792 36.6569 142.792 35V29C142.792 27.3431 144.135 26 145.792 26H173.981C178.952 26 182.981 30.0294 182.981 35V247C182.981 251.971 178.952 256 173.981 256H9C4.02943 256 0 251.971 0 247V35Z" fill="#0066CC"/>
<path d="M132.808 21C133.36 21 133.808 21.4477 133.808 22V50C133.808 50.5523 133.36 51 132.808 51H49.7004C49.1482 51 48.7004 50.5523 48.7004 50V22C48.7004 21.4477 49.1482 21 49.7004 21H71.1798C71.3221 21 71.4629 21.0304 71.5926 21.0892L88.3647 28.6904C90.2011 29.5227 92.3073 29.5227 94.1438 28.6904L110.916 21.0892C111.046 21.0304 111.186 21 111.329 21H132.808Z" fill="#0066CC"/>
<path d="M82.9733 3.28387C88.2981 1.17228 94.2393 1.14786 99.5858 3.20382C104.154 4.96051 107.643 8.7711 108.979 13.4797L111.113 21L99.765 27L98.3606 18.8316C98.0514 17.0332 96.9764 15.4578 95.4147 14.5141C92.8334 12.9542 89.6232 12.8624 86.9569 14.2722L86.1584 14.6944C84.6192 15.5082 83.599 17.0483 83.4499 18.7829L82.7435 27L71.3958 21L73.9089 13.0273C75.3104 8.58109 78.6397 5.00239 82.9733 3.28387Z" fill="#0066CC"/>
<path d="M148.802 79C150.183 79 151.302 80.1193 151.302 81.5C151.302 82.8807 150.183 84 148.802 84H38.4343C37.0536 84 35.9343 82.8807 35.9343 81.5C35.9343 80.1193 37.0536 79 38.4343 79H148.802Z" fill="#0066CC"/>
<path d="M144.71 79C148.351 79 151.302 80.1193 151.302 81.5C151.302 82.8807 148.351 84 144.71 84H42.5268C38.8859 84 35.9343 82.8807 35.9343 81.5C35.9343 80.1193 38.8859 79 42.5268 79H144.71Z" fill="#0066CC"/>
<path d="M90.1727 90C91.5534 90 92.6727 91.1193 92.6727 92.5C92.6727 93.8807 91.5534 95 90.1727 95H51.6733C50.2926 95 49.1733 93.8807 49.1733 92.5C49.1733 91.1193 50.2926 90 51.6733 90H90.1727Z" fill="#0066CC"/>
<path d="M90.187 90C91.5598 90 92.6727 91.1193 92.6727 92.5C92.6727 93.8807 91.5598 95 90.187 95H51.659C50.2862 95 49.1733 93.8807 49.1733 92.5C49.1733 91.1193 50.2862 90 51.659 90H90.187Z" fill="#0066CC"/>
<path d="M99.6291 101C101.01 101 102.129 102.119 102.129 103.5C102.129 104.881 101.01 106 99.6291 106H51.6733C50.2926 106 49.1733 104.881 49.1733 103.5C49.1733 102.119 50.2926 101 51.6733 101H99.6291Z" fill="#0066CC"/>
<path d="M99.1031 101C100.774 101 102.129 102.119 102.129 103.5C102.129 104.881 100.774 106 99.1031 106H52.1993C50.5281 106 49.1733 104.881 49.1733 103.5C49.1733 102.119 50.5281 101 52.1993 101H99.1031Z" fill="#0066CC"/>
<path d="M105.303 112C106.684 112 107.803 113.119 107.803 114.5C107.803 115.881 106.684 117 105.303 117H51.6733C50.2926 117 49.1733 115.881 49.1733 114.5C49.1733 113.119 50.2926 112 51.6733 112H105.303Z" fill="#0066CC"/>
<path d="M104.453 112C106.303 112 107.803 113.119 107.803 114.5C107.803 115.881 106.303 117 104.453 117H52.5235C50.6732 117 49.1733 115.881 49.1733 114.5C49.1733 113.119 50.6732 112 52.5235 112H104.453Z" fill="#0066CC"/>
<path d="M148.802 123C150.183 123 151.302 124.119 151.302 125.5C151.302 126.881 150.183 128 148.802 128H38.4343C37.0536 128 35.9343 126.881 35.9343 125.5C35.9343 124.119 37.0536 123 38.4343 123H148.802Z" fill="#0066CC"/>
<path d="M144.71 123C148.351 123 151.302 124.119 151.302 125.5C151.302 126.881 148.351 128 144.71 128H42.5268C38.8859 128 35.9343 126.881 35.9343 125.5C35.9343 124.119 38.8859 123 42.5268 123H144.71Z" fill="#0066CC"/>
<path d="M139.346 134C140.727 134 141.846 135.119 141.846 136.5C141.846 137.881 140.727 139 139.346 139H51.6733C50.2926 139 49.1733 137.881 49.1733 136.5C49.1733 135.119 50.2926 134 51.6733 134H139.346Z" fill="#0066CC"/>
<path d="M136.55 134C139.475 134 141.846 135.119 141.846 136.5C141.846 137.881 139.475 139 136.55 139H54.4689C51.5442 139 49.1733 137.881 49.1733 136.5C49.1733 135.119 51.5442 134 54.4689 134H136.55Z" fill="#0066CC"/>
<path d="M76.9338 145C78.3145 145 79.4338 146.119 79.4338 147.5C79.4338 148.881 78.3145 150 76.9338 150H51.6733C50.2926 150 49.1733 148.881 49.1733 147.5C49.1733 146.119 50.2926 145 51.6733 145H76.9338Z" fill="#0066CC"/>
<path d="M77.7046 145C78.6596 145 79.4338 146.119 79.4338 147.5C79.4338 148.881 78.6596 150 77.7046 150H50.9024C49.9475 150 49.1733 148.881 49.1733 147.5C49.1733 146.119 49.9475 145 50.9024 145H77.7046Z" fill="#0066CC"/>
<path d="M83.5532 156C84.9339 156 86.0532 157.119 86.0532 158.5C86.0532 159.881 84.9339 161 83.5532 161H51.6733C50.2926 161 49.1733 159.881 49.1733 158.5C49.1733 157.119 50.2926 156 51.6733 156H83.5532Z" fill="#0066CC"/>
<path d="M83.9458 156C85.1097 156 86.0532 157.119 86.0532 158.5C86.0532 159.881 85.1097 161 83.9458 161H51.2807C50.1168 161 49.1733 159.881 49.1733 158.5C49.1733 157.119 50.1168 156 51.2807 156H83.9458Z" fill="#0066CC"/>
<path d="M114.759 167C116.14 167 117.259 168.119 117.259 169.5C117.259 170.881 116.14 172 114.759 172H51.6733C50.2926 172 49.1733 170.881 49.1733 169.5C49.1733 168.119 50.2926 167 51.6733 167H114.759Z" fill="#0066CC"/>
<path d="M113.369 167C115.517 167 117.259 168.119 117.259 169.5C117.259 170.881 115.517 172 113.369 172H53.0639C50.9152 172 49.1733 170.881 49.1733 169.5C49.1733 168.119 50.9152 167 53.0639 167H113.369Z" fill="#0066CC"/>
<path d="M148.802 178C150.183 178 151.302 179.119 151.302 180.5C151.302 181.881 150.183 183 148.802 183H40.3256C38.9449 183 37.8256 181.881 37.8256 180.5C37.8256 179.119 38.9449 178 40.3256 178H148.802Z" fill="#0066CC"/>
<path d="M144.818 178C148.399 178 151.302 179.119 151.302 180.5C151.302 181.881 148.399 183 144.818 183H44.31C40.7287 183 37.8256 181.881 37.8256 180.5C37.8256 179.119 40.7288 178 44.31 178H144.818Z" fill="#0066CC"/>
<path d="M99.6291 189C101.01 189 102.129 190.119 102.129 191.5C102.129 192.881 101.01 194 99.6291 194H51.6733C50.2926 194 49.1733 192.881 49.1733 191.5C49.1733 190.119 50.2926 189 51.6733 189H99.6291Z" fill="#0066CC"/>
<path d="M99.1031 189C100.774 189 102.129 190.119 102.129 191.5C102.129 192.881 100.774 194 99.1031 194H52.1993C50.5281 194 49.1733 192.881 49.1733 191.5C49.1733 190.119 50.5281 189 52.1993 189H99.1031Z" fill="#0066CC"/>
<path d="M83.5532 200C84.9339 200 86.0532 201.119 86.0532 202.5C86.0532 203.881 84.9339 205 83.5532 205H51.6733C50.2926 205 49.1733 203.881 49.1733 202.5C49.1733 201.119 50.2926 200 51.6733 200H83.5532Z" fill="#0066CC"/>
<path d="M83.9458 200C85.1097 200 86.0532 201.119 86.0532 202.5C86.0532 203.881 85.1097 205 83.9458 205H51.2807C50.1168 205 49.1733 203.881 49.1733 202.5C49.1733 201.119 50.1168 200 51.2807 200H83.9458Z" fill="#0066CC"/>
<path d="M83.5532 211C84.9339 211 86.0532 212.119 86.0532 213.5C86.0532 214.881 84.9339 216 83.5532 216H51.6733C50.2926 216 49.1733 214.881 49.1733 213.5C49.1733 212.119 50.2926 211 51.6733 211H83.5532Z" fill="#0066CC"/>
<path d="M83.9458 211C85.1097 211 86.0532 212.119 86.0532 213.5C86.0532 214.881 85.1097 216 83.9458 216H51.2807C50.1168 216 49.1733 214.881 49.1733 213.5C49.1733 212.119 50.1168 211 51.2807 211H83.9458Z" fill="#0066CC"/>
<path d="M148.802 222C150.183 222 151.302 223.119 151.302 224.5C151.302 225.881 150.183 227 148.802 227H51.6733C50.2926 227 49.1733 225.881 49.1733 224.5C49.1733 223.119 50.2926 222 51.6733 222H148.802Z" fill="#0066CC"/>
<path d="M145.466 222C148.69 222 151.302 223.119 151.302 224.5C151.302 225.881 148.69 227 145.466 227H55.0092C51.7861 227 49.1733 225.881 49.1733 224.5C49.1733 223.119 51.7861 222 55.0092 222H145.466Z" fill="#0066CC"/>
<path d="M145.468 92.0939C145.881 91.5555 146.445 91.1527 147.088 90.9371C148.599 90.4307 150.222 91.3122 150.62 92.8552L150.775 93.4542C151.106 94.7385 150.799 96.1038 149.949 97.1223L142.319 106.268L135.61 115.032C134.772 116.126 133.473 116.768 132.094 116.768C130.783 116.768 129.539 116.187 128.698 115.181L119.946 104.718C119.432 104.104 119.151 103.329 119.151 102.529C119.151 100.667 120.961 99.3421 122.735 99.9051L122.898 99.9568C123.539 100.16 124.109 100.54 124.543 101.053L131.735 109.553C131.828 109.663 132 109.659 132.088 109.544L145.468 92.0939Z" fill="#67BA07"/>
<path d="M145.468 147.094C145.881 146.556 146.445 146.153 147.088 145.937C148.599 145.431 150.222 146.312 150.62 147.855L150.775 148.454C151.106 149.739 150.799 151.104 149.949 152.122L142.319 161.268L135.61 170.032C134.772 171.126 133.473 171.768 132.094 171.768C130.783 171.768 129.539 171.187 128.698 170.181L119.946 159.718C119.432 159.104 119.151 158.329 119.151 157.529C119.151 155.667 120.961 154.342 122.735 154.905L122.898 154.957C123.539 155.16 124.109 155.54 124.543 156.053L131.735 164.553C131.828 164.663 132 164.659 132.088 164.544L145.468 147.094Z" fill="#67BA07"/>
<path d="M145.468 191.094C145.881 190.556 146.445 190.153 147.088 189.937C148.599 189.431 150.222 190.312 150.62 191.855L150.775 192.454C151.106 193.739 150.799 195.104 149.949 196.122L142.319 205.268L135.61 214.032C134.772 215.126 133.473 215.768 132.094 215.768C130.783 215.768 129.539 215.187 128.698 214.181L119.946 203.718C119.432 203.104 119.151 202.329 119.151 201.529C119.151 199.667 120.961 198.342 122.735 198.905L122.898 198.957C123.539 199.16 124.109 199.54 124.543 200.053L131.735 208.553C131.828 208.663 132 208.659 132.088 208.544L145.468 191.094Z" fill="#67BA07"/>
<path fill-rule="evenodd" clip-rule="evenodd" d="M42.081 97C44.4312 97 46.3364 94.9853 46.3364 92.5C46.3364 90.0147 44.4312 88 42.081 88C39.7308 88 37.8256 90.0147 37.8256 92.5C37.8256 94.9853 39.7308 97 42.081 97ZM42.081 95C43.3866 95 44.4451 93.6046 44.4451 92.5C44.4451 91.3954 43.3866 90 42.081 90C40.7753 90 39.7169 91.3954 39.7169 92.5C39.7169 93.6046 40.7753 95 42.081 95Z" fill="#0066CC"/>
<path fill-rule="evenodd" clip-rule="evenodd" d="M42.081 108C44.4312 108 46.3364 105.985 46.3364 103.5C46.3364 101.015 44.4312 99 42.081 99C39.7308 99 37.8256 101.015 37.8256 103.5C37.8256 105.985 39.7308 108 42.081 108ZM42.081 106C43.3866 106 44.4451 104.605 44.4451 103.5C44.4451 102.395 43.3866 101 42.081 101C40.7753 101 39.7169 102.395 39.7169 103.5C39.7169 104.605 40.7753 106 42.081 106Z" fill="#0066CC"/>
<path fill-rule="evenodd" clip-rule="evenodd" d="M42.081 119C44.4312 119 46.3364 116.985 46.3364 114.5C46.3364 112.015 44.4312 110 42.081 110C39.7308 110 37.8256 112.015 37.8256 114.5C37.8256 116.985 39.7308 119 42.081 119ZM42.081 117C43.3866 117 44.4451 115.605 44.4451 114.5C44.4451 113.395 43.3866 112 42.081 112C40.7753 112 39.7169 113.395 39.7169 114.5C39.7169 115.605 40.7753 117 42.081 117Z" fill="#0066CC"/>
<path fill-rule="evenodd" clip-rule="evenodd" d="M42.081 141C44.4312 141 46.3364 138.985 46.3364 136.5C46.3364 134.015 44.4312 132 42.081 132C39.7308 132 37.8256 134.015 37.8256 136.5C37.8256 138.985 39.7308 141 42.081 141ZM42.081 139C43.3866 139 44.4451 137.605 44.4451 136.5C44.4451 135.395 43.3866 134 42.081 134C40.7753 134 39.7169 135.395 39.7169 136.5C39.7169 137.605 40.7753 139 42.081 139Z" fill="#0066CC"/>
<path fill-rule="evenodd" clip-rule="evenodd" d="M42.081 152C44.4312 152 46.3364 149.985 46.3364 147.5C46.3364 145.015 44.4312 143 42.081 143C39.7308 143 37.8256 145.015 37.8256 147.5C37.8256 149.985 39.7308 152 42.081 152ZM42.081 150C43.3866 150 44.4451 148.605 44.4451 147.5C44.4451 146.395 43.3866 145 42.081 145C40.7753 145 39.7169 146.395 39.7169 147.5C39.7169 148.605 40.7753 150 42.081 150Z" fill="#0066CC"/>
<path fill-rule="evenodd" clip-rule="evenodd" d="M42.081 163C44.4312 163 46.3364 160.985 46.3364 158.5C46.3364 156.015 44.4312 154 42.081 154C39.7308 154 37.8256 156.015 37.8256 158.5C37.8256 160.985 39.7308 163 42.081 163ZM42.081 161C43.3866 161 44.4451 159.605 44.4451 158.5C44.4451 157.395 43.3866 156 42.081 156C40.7753 156 39.7169 157.395 39.7169 158.5C39.7169 159.605 40.7753 161 42.081 161Z" fill="#0066CC"/>
<path fill-rule="evenodd" clip-rule="evenodd" d="M42.081 174C44.4312 174 46.3364 171.985 46.3364 169.5C46.3364 167.015 44.4312 165 42.081 165C39.7308 165 37.8256 167.015 37.8256 169.5C37.8256 171.985 39.7308 174 42.081 174ZM42.081 172C43.3866 172 44.4451 170.605 44.4451 169.5C44.4451 168.395 43.3866 167 42.081 167C40.7753 167 39.7169 168.395 39.7169 169.5C39.7169 170.605 40.7753 172 42.081 172Z" fill="#0066CC"/>
<path fill-rule="evenodd" clip-rule="evenodd" d="M42.081 196C44.4312 196 46.3364 193.985 46.3364 191.5C46.3364 189.015 44.4312 187 42.081 187C39.7308 187 37.8256 189.015 37.8256 191.5C37.8256 193.985 39.7308 196 42.081 196ZM42.081 194C43.3866 194 44.4451 192.605 44.4451 191.5C44.4451 190.395 43.3866 189 42.081 189C40.7753 189 39.7169 190.395 39.7169 191.5C39.7169 192.605 40.7753 194 42.081 194Z" fill="#0066CC"/>
<path fill-rule="evenodd" clip-rule="evenodd" d="M42.081 207C44.4312 207 46.3364 204.985 46.3364 202.5C46.3364 200.015 44.4312 198 42.081 198C39.7308 198 37.8256 200.015 37.8256 202.5C37.8256 204.985 39.7308 207 42.081 207ZM42.081 205C43.3866 205 44.4451 203.605 44.4451 202.5C44.4451 201.395 43.3866 200 42.081 200C40.7753 200 39.7169 201.395 39.7169 202.5C39.7169 203.605 40.7753 205 42.081 205Z" fill="#0066CC"/>
<path fill-rule="evenodd" clip-rule="evenodd" d="M42.081 218C44.4312 218 46.3364 215.985 46.3364 213.5C46.3364 211.015 44.4312 209 42.081 209C39.7308 209 37.8256 211.015 37.8256 213.5C37.8256 215.985 39.7308 218 42.081 218ZM42.081 216C43.3866 216 44.4451 214.605 44.4451 213.5C44.4451 212.395 43.3866 211 42.081 211C40.7753 211 39.7169 212.395 39.7169 213.5C39.7169 214.605 40.7753 216 42.081 216Z" fill="#0066CC"/>
<path fill-rule="evenodd" clip-rule="evenodd" d="M42.081 229C44.4312 229 46.3364 226.985 46.3364 224.5C46.3364 222.015 44.4312 220 42.081 220C39.7308 220 37.8256 222.015 37.8256 224.5C37.8256 226.985 39.7308 229 42.081 229ZM42.081 227C43.3866 227 44.4451 225.605 44.4451 224.5C44.4451 223.395 43.3866 222 42.081 222C40.7753 222 39.7169 223.395 39.7169 224.5C39.7169 225.605 40.7753 227 42.081 227Z" fill="#0066CC"/>
</svg>
