<svg width="194" height="256" viewBox="0 0 194 256" fill="none" xmlns="http://www.w3.org/2000/svg">
<path d="M0 35C0 30.0294 4.02944 26 9 26H21.5H38.5C40.1569 26 41.5 27.3431 41.5 29V35C41.5 36.6569 40.1569 38 38.5 38H20.5C16.634 38 13.5 41.134 13.5 45V236C13.5 239.866 16.634 243 20.5 243H173.5C177.366 243 180.5 239.866 180.5 236V45C180.5 41.134 177.366 38 173.5 38H154C152.343 38 151 36.6569 151 35V29C151 27.3431 152.343 26 154 26H184.5C189.471 26 193.5 30.0294 193.5 35V247C193.5 251.971 189.471 256 184.5 256H9C4.02944 256 0 251.971 0 247V35Z" fill="#0066CC"/>
<path d="M140.5 21C141.052 21 141.5 21.4477 141.5 22V50C141.5 50.5523 141.052 51 140.5 51H52.5C51.9477 51 51.5 50.5523 51.5 50V22C51.5 21.4477 51.9477 21 52.5 21H75.2947C75.4302 21 75.5642 21.0275 75.6887 21.0809L93.7426 28.8182C95.5034 29.5729 97.4966 29.5729 99.2574 28.8182L117.311 21.0809C117.436 21.0275 117.57 21 117.705 21H140.5Z" fill="#0066CC"/>
<path d="M87.9773 3.19603C93.4775 1.13342 99.5466 1.10785 105.067 3.11535V3.11535C110.051 4.92775 113.898 8.99305 115.422 14.0728L117.5 21L105.5 27L104.061 19.0875C103.705 17.1301 102.503 15.4301 100.775 14.4431V14.4431C98.1044 12.9168 94.8473 12.8264 92.0957 14.2022L91.2482 14.6259C89.5397 15.4802 88.3948 17.1576 88.2218 19.0599L87.5 27L75.5 21L77.9747 13.5759C79.572 8.78399 83.2477 4.9696 87.9773 3.19603V3.19603Z" fill="#0066CC"/>
<path d="M155.5 71C156.881 71 158 72.1193 158 73.5V73.5C158 74.8807 156.881 76 155.5 76H38.5C37.1193 76 36 74.8807 36 73.5V73.5C36 72.1193 37.1193 71 38.5 71H155.5Z" fill="#67BA07"/>
<path d="M151.029 71C154.879 71 158 72.1193 158 73.5C158 74.8807 154.879 76 151.029 76H42.9714C39.1212 76 36 74.8807 36 73.5C36 72.1193 39.1212 71 42.9714 71H151.029Z" fill="#67BA07"/>
<path d="M152.5 82C153.881 82 155 83.1193 155 84.5V84.5C155 85.8807 153.881 87 152.5 87H49.5C48.1193 87 47 85.8807 47 84.5V84.5C47 83.1193 48.1193 82 49.5 82H152.5Z" fill="#0066CC"/>
<path d="M148.829 82C152.237 82 155 83.1193 155 84.5C155 85.8807 152.237 87 148.829 87H53.1714C49.763 87 47 85.8807 47 84.5C47 83.1193 49.763 82 53.1714 82H148.829Z" fill="#0066CC"/>
<path d="M152.5 93C153.881 93 155 94.1193 155 95.5V95.5C155 96.8807 153.881 98 152.5 98H49.5C48.1193 98 47 96.8807 47 95.5V95.5C47 94.1193 48.1193 93 49.5 93H152.5Z" fill="#0066CC"/>
<path d="M148.829 93C152.237 93 155 94.1193 155 95.5C155 96.8807 152.237 98 148.829 98H53.1714C49.763 98 47 96.8807 47 95.5C47 94.1193 49.763 93 53.1714 93H148.829Z" fill="#0066CC"/>
<path d="M152.5 104C153.881 104 155 105.119 155 106.5V106.5C155 107.881 153.881 109 152.5 109H49.5C48.1193 109 47 107.881 47 106.5V106.5C47 105.119 48.1193 104 49.5 104H152.5Z" fill="#0066CC"/>
<path d="M148.829 104C152.237 104 155 105.119 155 106.5C155 107.881 152.237 109 148.829 109H53.1714C49.763 109 47 107.881 47 106.5C47 105.119 49.763 104 53.1714 104H148.829Z" fill="#0066CC"/>
<path fill-rule="evenodd" clip-rule="evenodd" d="M39.5 89C41.9853 89 44 86.9853 44 84.5C44 82.0147 41.9853 80 39.5 80C37.0147 80 35 82.0147 35 84.5C35 86.9853 37.0147 89 39.5 89ZM39.5 87C40.8807 87 42 85.6046 42 84.5C42 83.3954 40.8807 82 39.5 82C38.1193 82 37 83.3954 37 84.5C37 85.6046 38.1193 87 39.5 87Z" fill="#0066CC"/>
<path fill-rule="evenodd" clip-rule="evenodd" d="M39.5 100C41.9853 100 44 97.9853 44 95.5C44 93.0147 41.9853 91 39.5 91C37.0147 91 35 93.0147 35 95.5C35 97.9853 37.0147 100 39.5 100ZM39.5 98C40.8807 98 42 96.6046 42 95.5C42 94.3954 40.8807 93 39.5 93C38.1193 93 37 94.3954 37 95.5C37 96.6046 38.1193 98 39.5 98Z" fill="#0066CC"/>
<path fill-rule="evenodd" clip-rule="evenodd" d="M39.5 111C41.9853 111 44 108.985 44 106.5C44 104.015 41.9853 102 39.5 102C37.0147 102 35 104.015 35 106.5C35 108.985 37.0147 111 39.5 111ZM39.5 109C40.8807 109 42 107.605 42 106.5C42 105.395 40.8807 104 39.5 104C38.1193 104 37 105.395 37 106.5C37 107.605 38.1193 109 39.5 109Z" fill="#0066CC"/>
<path d="M155.5 123C156.881 123 158 124.119 158 125.5V125.5C158 126.881 156.881 128 155.5 128H38.5C37.1193 128 36 126.881 36 125.5V125.5C36 124.119 37.1193 123 38.5 123H155.5Z" fill="#67BA07"/>
<path d="M151.029 123C154.879 123 158 124.119 158 125.5C158 126.881 154.879 128 151.029 128H42.9714C39.1212 128 36 126.881 36 125.5C36 124.119 39.1212 123 42.9714 123H151.029Z" fill="#67BA07"/>
<path d="M108.5 136C109.881 136 111 137.119 111 138.5V138.5C111 139.881 109.881 141 108.5 141H38.5C37.1193 141 36 139.881 36 138.5V138.5C36 137.119 37.1193 136 38.5 136H108.5Z" fill="#0066CC"/>
<path d="M106.714 136C109.081 136 111 137.119 111 138.5C111 139.881 109.081 141 106.714 141H40.2857C37.9188 141 36 139.881 36 138.5C36 137.119 37.9188 136 40.2857 136H106.714Z" fill="#0066CC"/>
<path d="M155.5 155C156.881 155 158 156.119 158 157.5V157.5C158 158.881 156.881 160 155.5 160H38.5C37.1193 160 36 158.881 36 157.5V157.5C36 156.119 37.1193 155 38.5 155H155.5Z" fill="#67BA07"/>
<path d="M151.029 155C154.879 155 158 156.119 158 157.5C158 158.881 154.879 160 151.029 160H42.9714C39.1212 160 36 158.881 36 157.5C36 156.119 39.1212 155 42.9714 155H151.029Z" fill="#67BA07"/>
<path d="M152.5 166C153.881 166 155 167.119 155 168.5V168.5C155 169.881 153.881 171 152.5 171H49.5C48.1193 171 47 169.881 47 168.5V168.5C47 167.119 48.1193 166 49.5 166H152.5Z" fill="#0066CC"/>
<path d="M148.829 166C152.237 166 155 167.119 155 168.5C155 169.881 152.237 171 148.829 171H53.1714C49.763 171 47 169.881 47 168.5C47 167.119 49.763 166 53.1714 166H148.829Z" fill="#0066CC"/>
<path d="M152.5 177C153.881 177 155 178.119 155 179.5V179.5C155 180.881 153.881 182 152.5 182H49.5C48.1193 182 47 180.881 47 179.5V179.5C47 178.119 48.1193 177 49.5 177H152.5Z" fill="#0066CC"/>
<path d="M148.829 177C152.237 177 155 178.119 155 179.5C155 180.881 152.237 182 148.829 182H53.1714C49.763 182 47 180.881 47 179.5C47 178.119 49.763 177 53.1714 177H148.829Z" fill="#0066CC"/>
<path d="M152.5 188C153.881 188 155 189.119 155 190.5V190.5C155 191.881 153.881 193 152.5 193H49.5C48.1193 193 47 191.881 47 190.5V190.5C47 189.119 48.1193 188 49.5 188H152.5Z" fill="#0066CC"/>
<path d="M148.829 188C152.237 188 155 189.119 155 190.5C155 191.881 152.237 193 148.829 193H53.1714C49.763 193 47 191.881 47 190.5C47 189.119 49.763 188 53.1714 188H148.829Z" fill="#0066CC"/>
<path fill-rule="evenodd" clip-rule="evenodd" d="M39.5 173C41.9853 173 44 170.985 44 168.5C44 166.015 41.9853 164 39.5 164C37.0147 164 35 166.015 35 168.5C35 170.985 37.0147 173 39.5 173ZM39.5 171C40.8807 171 42 169.605 42 168.5C42 167.395 40.8807 166 39.5 166C38.1193 166 37 167.395 37 168.5C37 169.605 38.1193 171 39.5 171Z" fill="#0066CC"/>
<path fill-rule="evenodd" clip-rule="evenodd" d="M39.5 184C41.9853 184 44 181.985 44 179.5C44 177.015 41.9853 175 39.5 175C37.0147 175 35 177.015 35 179.5C35 181.985 37.0147 184 39.5 184ZM39.5 182C40.8807 182 42 180.605 42 179.5C42 178.395 40.8807 177 39.5 177C38.1193 177 37 178.395 37 179.5C37 180.605 38.1193 182 39.5 182Z" fill="#0066CC"/>
<path fill-rule="evenodd" clip-rule="evenodd" d="M39.5 195C41.9853 195 44 192.985 44 190.5C44 188.015 41.9853 186 39.5 186C37.0147 186 35 188.015 35 190.5C35 192.985 37.0147 195 39.5 195ZM39.5 193C40.8807 193 42 191.605 42 190.5C42 189.395 40.8807 188 39.5 188C38.1193 188 37 189.395 37 190.5C37 191.605 38.1193 193 39.5 193Z" fill="#0066CC"/>
<path d="M42.5373 80.4822C42.6474 80.353 42.7923 80.2581 42.9549 80.209V80.209C43.3355 80.0941 43.7366 80.3129 43.8461 80.6951L43.8561 80.7302C43.9454 81.0422 43.8653 81.3783 43.6447 81.6164L41.7647 83.6464L40.1176 85.5847C39.8937 85.8482 39.5654 86 39.2197 86V86C38.8921 86 38.5792 85.8636 38.3562 85.6235L36.2049 83.3067C36.0732 83.1649 36 82.9785 36 82.785V82.785C36 82.3742 36.3932 82.0777 36.7881 82.1906L36.9352 82.2326C37.0931 82.2777 37.2358 82.3647 37.3483 82.4845L39.1338 84.3855C39.1566 84.4098 39.1953 84.4088 39.2169 84.3835L42.5373 80.4822Z" fill="#67BA07"/>
<path d="M42.5373 175.482C42.6474 175.353 42.7923 175.258 42.9549 175.209V175.209C43.3355 175.094 43.7366 175.313 43.8461 175.695L43.8561 175.73C43.9454 176.042 43.8653 176.378 43.6447 176.616L41.7647 178.646L40.1176 180.585C39.8937 180.848 39.5654 181 39.2197 181V181C38.8921 181 38.5792 180.864 38.3562 180.623L36.2049 178.307C36.0732 178.165 36 177.979 36 177.785V177.785C36 177.374 36.3932 177.078 36.7881 177.191L36.9352 177.233C37.0931 177.278 37.2358 177.365 37.3483 177.484L39.1338 179.386C39.1566 179.41 39.1953 179.409 39.2169 179.384L42.5373 175.482Z" fill="#67BA07"/>
</svg>
