<svg width="194" height="256" viewBox="0 0 194 256" fill="none" xmlns="http://www.w3.org/2000/svg">
<path d="M0 35C0 30.0294 4.02944 26 9 26H21.5H38.5C40.1569 26 41.5 27.3431 41.5 29V35C41.5 36.6569 40.1569 38 38.5 38H20.5C16.634 38 13.5 41.134 13.5 45V236C13.5 239.866 16.634 243 20.5 243H173.5C177.366 243 180.5 239.866 180.5 236V45C180.5 41.134 177.366 38 173.5 38H154C152.343 38 151 36.6569 151 35V29C151 27.3431 152.343 26 154 26H184.5C189.471 26 193.5 30.0294 193.5 35V247C193.5 251.971 189.471 256 184.5 256H9C4.02944 256 0 251.971 0 247V35Z" fill="#0066CC"/>
<path d="M140.5 21C141.052 21 141.5 21.4477 141.5 22V50C141.5 50.5523 141.052 51 140.5 51H52.5C51.9477 51 51.5 50.5523 51.5 50V22C51.5 21.4477 51.9477 21 52.5 21H75.2947C75.4302 21 75.5642 21.0275 75.6887 21.0809L93.7426 28.8182C95.5034 29.5729 97.4966 29.5729 99.2574 28.8182L117.311 21.0809C117.436 21.0275 117.57 21 117.705 21H140.5Z" fill="#0066CC"/>
<path d="M87.9773 3.19603C93.4775 1.13342 99.5466 1.10785 105.067 3.11535V3.11535C110.051 4.92775 113.898 8.99305 115.422 14.0728L117.5 21L105.5 27L104.061 19.0875C103.705 17.1301 102.503 15.4301 100.775 14.4431V14.4431C98.1044 12.9168 94.8473 12.8264 92.0957 14.2022L91.2482 14.6259C89.5397 15.4802 88.3948 17.1576 88.2218 19.0599L87.5 27L75.5 21L77.9747 13.5759C79.572 8.78399 83.2477 4.9696 87.9773 3.19603V3.19603Z" fill="#0066CC"/>
<path d="M155.5 176C156.881 176 158 177.119 158 178.5V178.5C158 179.881 156.881 181 155.5 181H38.5C37.1193 181 36 179.881 36 178.5V178.5C36 177.119 37.1193 176 38.5 176H155.5Z" fill="#0066CC"/>
<path d="M151.029 176C154.879 176 158 177.119 158 178.5C158 179.881 154.879 181 151.029 181H42.9714C39.1212 181 36 179.881 36 178.5C36 177.119 39.1212 176 42.9714 176H151.029Z" fill="#0066CC"/>
<path d="M155.5 143C156.881 143 158 144.119 158 145.5V145.5C158 146.881 156.881 148 155.5 148H52.5C51.1193 148 50 146.881 50 145.5V145.5C50 144.119 51.1193 143 52.5 143H155.5Z" fill="#0066CC"/>
<path d="M151.829 143C155.237 143 158 144.119 158 145.5C158 146.881 155.237 148 151.829 148H56.1714C52.763 148 50 146.881 50 145.5C50 144.119 52.763 143 56.1714 143H151.829Z" fill="#0066CC"/>
<path d="M155.5 154C156.881 154 158 155.119 158 156.5V156.5C158 157.881 156.881 159 155.5 159H52.5C51.1193 159 50 157.881 50 156.5V156.5C50 155.119 51.1193 154 52.5 154H155.5Z" fill="#0066CC"/>
<path d="M151.829 154C155.237 154 158 155.119 158 156.5C158 157.881 155.237 159 151.829 159H56.1714C52.763 159 50 157.881 50 156.5C50 155.119 52.763 154 56.1714 154H151.829Z" fill="#0066CC"/>
<path d="M155.5 165C156.881 165 158 166.119 158 167.5V167.5C158 168.881 156.881 170 155.5 170H52.5C51.1193 170 50 168.881 50 167.5V167.5C50 166.119 51.1193 165 52.5 165H155.5Z" fill="#0066CC"/>
<path d="M151.829 165C155.237 165 158 166.119 158 167.5C158 168.881 155.237 170 151.829 170H56.1714C52.763 170 50 168.881 50 167.5C50 166.119 52.763 165 56.1714 165H151.829Z" fill="#0066CC"/>
<path fill-rule="evenodd" clip-rule="evenodd" d="M42.5 150C44.9853 150 47 147.985 47 145.5C47 143.015 44.9853 141 42.5 141C40.0147 141 38 143.015 38 145.5C38 147.985 40.0147 150 42.5 150ZM42.5 148C43.8807 148 45 146.605 45 145.5C45 144.395 43.8807 143 42.5 143C41.1193 143 40 144.395 40 145.5C40 146.605 41.1193 148 42.5 148Z" fill="#0066CC"/>
<path fill-rule="evenodd" clip-rule="evenodd" d="M42.5 161C44.9853 161 47 158.985 47 156.5C47 154.015 44.9853 152 42.5 152C40.0147 152 38 154.015 38 156.5C38 158.985 40.0147 161 42.5 161ZM42.5 159C43.8807 159 45 157.605 45 156.5C45 155.395 43.8807 154 42.5 154C41.1193 154 40 155.395 40 156.5C40 157.605 41.1193 159 42.5 159Z" fill="#0066CC"/>
<path fill-rule="evenodd" clip-rule="evenodd" d="M42.5 172C44.9853 172 47 169.985 47 167.5C47 165.015 44.9853 163 42.5 163C40.0147 163 38 165.015 38 167.5C38 169.985 40.0147 172 42.5 172ZM42.5 170C43.8807 170 45 168.605 45 167.5C45 166.395 43.8807 165 42.5 165C41.1193 165 40 166.395 40 167.5C40 168.605 41.1193 170 42.5 170Z" fill="#0066CC"/>
<path d="M91.6364 126.273L92.3636 106.273L75.4545 117L71.0909 109.364L88.9091 100.091L71.0909 90.8182L75.4545 83.1818L92.3636 93.9091L91.6364 73.9091H100.364L99.6364 93.9091L116.545 83.1818L120.909 90.8182L103.091 100.091L120.909 109.364L116.545 117L99.6364 106.273L100.364 126.273H91.6364Z" fill="#67BA07"/>
</svg>
