<svg width="194" height="256" viewBox="0 0 194 256" fill="none" xmlns="http://www.w3.org/2000/svg">
<path d="M0 35C0 30.0294 4.02944 26 9 26H21.5H38.5C40.1569 26 41.5 27.3431 41.5 29V35C41.5 36.6569 40.1569 38 38.5 38H20.5C16.634 38 13.5 41.134 13.5 45V236C13.5 239.866 16.634 243 20.5 243H173.5C177.366 243 180.5 239.866 180.5 236V45C180.5 41.134 177.366 38 173.5 38H154C152.343 38 151 36.6569 151 35V29C151 27.3431 152.343 26 154 26H184.5C189.471 26 193.5 30.0294 193.5 35V247C193.5 251.971 189.471 256 184.5 256H9C4.02944 256 0 251.971 0 247V35Z" fill="#0066CC"/>
<path d="M140.5 21C141.052 21 141.5 21.4477 141.5 22V50C141.5 50.5523 141.052 51 140.5 51H52.5C51.9477 51 51.5 50.5523 51.5 50V22C51.5 21.4477 51.9477 21 52.5 21H75.2947C75.4302 21 75.5642 21.0275 75.6887 21.0809L93.7426 28.8182C95.5034 29.5729 97.4966 29.5729 99.2574 28.8182L117.311 21.0809C117.436 21.0275 117.57 21 117.705 21H140.5Z" fill="#0066CC"/>
<path d="M87.9773 3.19603C93.4775 1.13342 99.5466 1.10785 105.067 3.11535V3.11535C110.051 4.92775 113.898 8.99305 115.422 14.0728L117.5 21L105.5 27L104.061 19.0875C103.705 17.1301 102.503 15.4301 100.775 14.4431V14.4431C98.1044 12.9168 94.8473 12.8264 92.0957 14.2022L91.2482 14.6259C89.5397 15.4802 88.3948 17.1576 88.2218 19.0599L87.5 27L75.5 21L77.9747 13.5759C79.572 8.78399 83.2477 4.9696 87.9773 3.19603V3.19603Z" fill="#0066CC"/>
<path d="M72.5 80C73.8807 80 75 81.1193 75 82.5V82.5C75 83.8807 73.8807 85 72.5 85H49.5C48.1193 85 47 83.8807 47 82.5V82.5C47 81.1193 48.1193 80 49.5 80H72.5Z" fill="#0066CC"/>
<path d="M73.4 80C74.2837 80 75 81.1193 75 82.5C75 83.8807 74.2837 85 73.4 85H48.6C47.7163 85 47 83.8807 47 82.5C47 81.1193 47.7163 80 48.6 80H73.4Z" fill="#0066CC"/>
<path d="M111.5 91C112.881 91 114 92.1193 114 93.5V93.5C114 94.8807 112.881 96 111.5 96H49.5C48.1193 96 47 94.8807 47 93.5V93.5C47 92.1193 48.1193 91 49.5 91H111.5Z" fill="#67BA07"/>
<path d="M110.171 91C112.286 91 114 92.1193 114 93.5C114 94.8807 112.286 96 110.171 96H50.8286C48.7141 96 47 94.8807 47 93.5C47 92.1193 48.7141 91 50.8286 91H110.171Z" fill="#67BA07"/>
<path d="M70.5 102C71.8807 102 73 103.119 73 104.5V104.5C73 105.881 71.8807 107 70.5 107H49.5C48.1193 107 47 105.881 47 104.5V104.5C47 103.119 48.1193 102 49.5 102H70.5Z" fill="#0066CC"/>
<path d="M71.5143 102C72.3348 102 73 103.119 73 104.5C73 105.881 72.3348 107 71.5143 107H48.4857C47.6652 107 47 105.881 47 104.5C47 103.119 47.6652 102 48.4857 102H71.5143Z" fill="#0066CC"/>
<path fill-rule="evenodd" clip-rule="evenodd" d="M39.5 87C41.9853 87 44 84.9853 44 82.5C44 80.0147 41.9853 78 39.5 78C37.0147 78 35 80.0147 35 82.5C35 84.9853 37.0147 87 39.5 87ZM39.5 85C40.8807 85 42 83.6046 42 82.5C42 81.3954 40.8807 80 39.5 80C38.1193 80 37 81.3954 37 82.5C37 83.6046 38.1193 85 39.5 85Z" fill="#0066CC"/>
<path fill-rule="evenodd" clip-rule="evenodd" d="M39.5 98C41.9853 98 44 95.9853 44 93.5C44 91.0147 41.9853 89 39.5 89C37.0147 89 35 91.0147 35 93.5C35 95.9853 37.0147 98 39.5 98ZM39.5 96C40.8807 96 42 94.6046 42 93.5C42 92.3954 40.8807 91 39.5 91C38.1193 91 37 92.3954 37 93.5C37 94.6046 38.1193 96 39.5 96Z" fill="#0066CC"/>
<path fill-rule="evenodd" clip-rule="evenodd" d="M39.5 109C41.9853 109 44 106.985 44 104.5C44 102.015 41.9853 100 39.5 100C37.0147 100 35 102.015 35 104.5C35 106.985 37.0147 109 39.5 109ZM39.5 107C40.8807 107 42 105.605 42 104.5C42 103.395 40.8807 102 39.5 102C38.1193 102 37 103.395 37 104.5C37 105.605 38.1193 107 39.5 107Z" fill="#0066CC"/>
<path d="M128.5 123C129.881 123 131 124.119 131 125.5V125.5C131 126.881 129.881 128 128.5 128H49.5C48.1193 128 47 126.881 47 125.5V125.5C47 124.119 48.1193 123 49.5 123H128.5Z" fill="#67BA07"/>
<path d="M126.2 123C128.851 123 131 124.119 131 125.5C131 126.881 128.851 128 126.2 128H51.8C49.149 128 47 126.881 47 125.5C47 124.119 49.149 123 51.8 123H126.2Z" fill="#67BA07"/>
<path d="M57.5 134C58.8807 134 60 135.119 60 136.5V136.5C60 137.881 58.8807 139 57.5 139H49.5C48.1193 139 47 137.881 47 136.5V136.5C47 135.119 48.1193 134 49.5 134H57.5Z" fill="#0066CC"/>
<path d="M59.2571 134C59.6674 134 60 135.119 60 136.5C60 137.881 59.6674 139 59.2571 139H47.7429C47.3326 139 47 137.881 47 136.5C47 135.119 47.3326 134 47.7429 134H59.2571Z" fill="#0066CC"/>
<path d="M66.5 145C67.8807 145 69 146.119 69 147.5V147.5C69 148.881 67.8807 150 66.5 150H49.5C48.1193 150 47 148.881 47 147.5V147.5C47 146.119 48.1193 145 49.5 145H66.5Z" fill="#0066CC"/>
<path d="M67.7429 145C68.4372 145 69 146.119 69 147.5C69 148.881 68.4372 150 67.7429 150H48.2571C47.5628 150 47 148.881 47 147.5C47 146.119 47.5628 145 48.2571 145H67.7429Z" fill="#0066CC"/>
<path fill-rule="evenodd" clip-rule="evenodd" d="M39.5 130C41.9853 130 44 127.985 44 125.5C44 123.015 41.9853 121 39.5 121C37.0147 121 35 123.015 35 125.5C35 127.985 37.0147 130 39.5 130ZM39.5 128C40.8807 128 42 126.605 42 125.5C42 124.395 40.8807 123 39.5 123C38.1193 123 37 124.395 37 125.5C37 126.605 38.1193 128 39.5 128Z" fill="#0066CC"/>
<path fill-rule="evenodd" clip-rule="evenodd" d="M39.5 141C41.9853 141 44 138.985 44 136.5C44 134.015 41.9853 132 39.5 132C37.0147 132 35 134.015 35 136.5C35 138.985 37.0147 141 39.5 141ZM39.5 139C40.8807 139 42 137.605 42 136.5C42 135.395 40.8807 134 39.5 134C38.1193 134 37 135.395 37 136.5C37 137.605 38.1193 139 39.5 139Z" fill="#0066CC"/>
<path fill-rule="evenodd" clip-rule="evenodd" d="M39.5 152C41.9853 152 44 149.985 44 147.5C44 145.015 41.9853 143 39.5 143C37.0147 143 35 145.015 35 147.5C35 149.985 37.0147 152 39.5 152ZM39.5 150C40.8807 150 42 148.605 42 147.5C42 146.395 40.8807 145 39.5 145C38.1193 145 37 146.395 37 147.5C37 148.605 38.1193 150 39.5 150Z" fill="#0066CC"/>
<path d="M76.5 166C77.8807 166 79 167.119 79 168.5V168.5C79 169.881 77.8807 171 76.5 171H49.5C48.1193 171 47 169.881 47 168.5V168.5C47 167.119 48.1193 166 49.5 166H76.5Z" fill="#0066CC"/>
<path d="M77.1714 166C78.1813 166 79 167.119 79 168.5C79 169.881 78.1813 171 77.1714 171H48.8286C47.8187 171 47 169.881 47 168.5C47 167.119 47.8187 166 48.8286 166H77.1714Z" fill="#0066CC"/>
<path d="M60.5 177C61.8807 177 63 178.119 63 179.5V179.5C63 180.881 61.8807 182 60.5 182H49.5C48.1193 182 47 180.881 47 179.5V179.5C47 178.119 48.1193 177 49.5 177H60.5Z" fill="#0066CC"/>
<path d="M62.0857 177C62.5907 177 63 178.119 63 179.5C63 180.881 62.5907 182 62.0857 182H47.9143C47.4093 182 47 180.881 47 179.5C47 178.119 47.4093 177 47.9143 177H62.0857Z" fill="#0066CC"/>
<path d="M115.5 188C116.881 188 118 189.119 118 190.5V190.5C118 191.881 116.881 193 115.5 193H49.5C48.1193 193 47 191.881 47 190.5V190.5C47 189.119 48.1193 188 49.5 188H115.5Z" fill="#67BA07"/>
<path d="M113.943 188C116.184 188 118 189.119 118 190.5C118 191.881 116.184 193 113.943 193H51.0571C48.8164 193 47 191.881 47 190.5C47 189.119 48.8164 188 51.0571 188H113.943Z" fill="#67BA07"/>
<path fill-rule="evenodd" clip-rule="evenodd" d="M39.5 173C41.9853 173 44 170.985 44 168.5C44 166.015 41.9853 164 39.5 164C37.0147 164 35 166.015 35 168.5C35 170.985 37.0147 173 39.5 173ZM39.5 171C40.8807 171 42 169.605 42 168.5C42 167.395 40.8807 166 39.5 166C38.1193 166 37 167.395 37 168.5C37 169.605 38.1193 171 39.5 171Z" fill="#0066CC"/>
<path fill-rule="evenodd" clip-rule="evenodd" d="M39.5 184C41.9853 184 44 181.985 44 179.5C44 177.015 41.9853 175 39.5 175C37.0147 175 35 177.015 35 179.5C35 181.985 37.0147 184 39.5 184ZM39.5 182C40.8807 182 42 180.605 42 179.5C42 178.395 40.8807 177 39.5 177C38.1193 177 37 178.395 37 179.5C37 180.605 38.1193 182 39.5 182Z" fill="#0066CC"/>
<path fill-rule="evenodd" clip-rule="evenodd" d="M39.5 195C41.9853 195 44 192.985 44 190.5C44 188.015 41.9853 186 39.5 186C37.0147 186 35 188.015 35 190.5C35 192.985 37.0147 195 39.5 195ZM39.5 193C40.8807 193 42 191.605 42 190.5C42 189.395 40.8807 188 39.5 188C38.1193 188 37 189.395 37 190.5C37 191.605 38.1193 193 39.5 193Z" fill="#0066CC"/>
</svg>
