<svg width="208" height="35" viewBox="0 0 208 35" fill="none" xmlns="http://www.w3.org/2000/svg">
<path d="M148 8C148 7.44772 148.448 7 149 7H151C151.552 7 152 7.44772 152 8V26C152 26.5523 151.552 27 151 27H149C148.448 27 148 26.5523 148 26V21.8234C148 21.7196 148.016 21.6163 148.048 21.5174L148.811 19.1421C149.259 17.7491 149.259 16.2509 148.811 14.8579L148.048 12.4826C148.016 12.3837 148 12.2804 148 12.1766V8Z" fill="#0066CC"/>
<path d="M8.40001 25.704C6.43201 25.704 4.75201 25.344 3.36001 24.624C1.96801 23.904 1.08 22.712 0 21.344L2 19.344C3 20.344 3.66001 21.132 4.69201 21.708C5.72401 22.26 6.99601 22.536 8.50801 22.536C9.99601 22.536 11.184 22.212 12.072 21.564C12.984 20.916 13.44 20.028 13.44 18.9C13.44 17.964 13.224 17.208 12.792 16.632C12.36 16.056 11.772 15.588 11.028 15.228C10.308 14.844 9.51601 14.508 8.65201 14.22C7.78801 13.908 6.92401 13.584 6.06001 13.248C5.19601 12.888 4.40401 12.456 3.68401 11.952C2.96401 11.424 2.37601 10.74 1.92001 9.9C1.48801 9.06 1.27201 8.004 1.27201 6.732C1.27201 5.316 1.60801 4.116 2.28001 3.132C2.97601 2.124 3.91201 1.356 5.08801 0.828C6.28801 0.276 7.63201 0 9.12001 0C10.752 0 12.216 0.324 13.512 0.972C14.808 1.596 15.864 2.424 16.68 3.456L14.376 5.76C13.632 4.896 12.828 4.248 11.964 3.816C11.124 3.384 10.152 3.168 9.04801 3.168C7.70401 3.168 6.63601 3.468 5.84401 4.068C5.05201 4.644 4.65601 5.46 4.65601 6.516C4.65601 7.356 4.87201 8.04 5.30401 8.568C5.76001 9.072 6.34801 9.504 7.06801 9.864C7.78801 10.224 8.58001 10.56 9.44401 10.872C10.332 11.16 11.208 11.484 12.072 11.844C12.936 12.204 13.728 12.66 14.448 13.212C15.168 13.764 15.744 14.484 16.176 15.372C16.632 16.236 16.86 17.328 16.86 18.648C16.86 20.856 16.092 22.584 14.556 23.832C13.044 25.08 10.992 25.704 8.40001 25.704Z" fill="#0066CC"/>
<path d="M27.7208 25.704C26.3288 25.704 25.0688 25.392 23.9408 24.768C22.8368 24.12 21.9728 23.232 21.3488 22.104C20.7248 20.976 20.4128 19.668 20.4128 18.18V8.244H23.6528V18.036C23.6528 18.972 23.8088 19.788 24.1208 20.484C24.4568 21.156 24.9368 21.672 25.5608 22.032C26.1848 22.392 26.9168 22.572 27.7568 22.572C29.0288 22.572 30.0248 22.176 30.7448 21.384C31.4648 20.568 31.8248 19.452 31.8248 18.036V8.244H35.0648V18.18C35.0648 19.668 34.7528 20.976 34.1288 22.104C33.5048 23.232 32.6408 24.12 31.5368 24.768C30.4568 25.392 29.1848 25.704 27.7208 25.704Z" fill="#0066CC"/>
<path d="M39.4073 25.344V8.244H42.6473V25.344H39.4073ZM42.6473 15.588L41.4233 15.048C41.4233 12.864 41.9273 11.124 42.9353 9.828C43.9433 8.532 45.3953 7.884 47.2913 7.884C48.1553 7.884 48.9353 8.04 49.6313 8.352C50.3273 8.64 50.9753 9.132 51.5753 9.828L49.4513 12.024C49.0913 11.64 48.6953 11.364 48.2633 11.196C47.8313 11.028 47.3273 10.944 46.7513 10.944C45.5513 10.944 44.5673 11.328 43.7993 12.096C43.0313 12.864 42.6473 14.028 42.6473 15.588Z" fill="#0066CC"/>
<path d="M59.4081 25.344L51.5601 8.244H55.1601L61.4601 22.68H59.3721L65.7081 8.244H69.1641L61.3161 25.344H59.4081Z" fill="#0066CC"/>
<path d="M79.1788 25.704C77.4748 25.704 75.9388 25.32 74.5708 24.552C73.2028 23.76 72.1228 22.692 71.3308 21.348C70.5388 20.004 70.1428 18.48 70.1428 16.776C70.1428 15.096 70.5268 13.584 71.2948 12.24C72.0868 10.896 73.1428 9.84 74.4628 9.072C75.8068 8.28 77.3068 7.884 78.9628 7.884C80.5468 7.884 81.9388 8.244 83.1388 8.964C84.3628 9.684 85.3108 10.68 85.9828 11.952C86.6788 13.224 87.0268 14.664 87.0268 16.272C87.0268 16.512 87.0148 16.776 86.9908 17.064C86.9668 17.328 86.9188 17.64 86.8468 18H72.4108V15.3H85.1188L83.9308 16.344C83.9308 15.192 83.7268 14.22 83.3188 13.428C82.9108 12.612 82.3348 11.988 81.5908 11.556C80.8468 11.1 79.9468 10.872 78.8908 10.872C77.7868 10.872 76.8148 11.112 75.9748 11.592C75.1348 12.072 74.4868 12.744 74.0308 13.608C73.5748 14.472 73.3468 15.492 73.3468 16.668C73.3468 17.868 73.5868 18.924 74.0668 19.836C74.5468 20.724 75.2308 21.42 76.1188 21.924C77.0068 22.404 78.0268 22.644 79.1788 22.644C80.1388 22.644 81.0148 22.476 81.8068 22.14C82.6228 21.804 83.3188 21.3 83.8948 20.628L85.9828 22.752C85.1668 23.712 84.1588 24.444 82.9588 24.948C81.7828 25.452 80.5228 25.704 79.1788 25.704Z" fill="#0066CC"/>
<path d="M95.8944 25.488L88.4784 8.244H92.0784L97.5863 21.744H96.4343L102.23 8.244H105.83L97.8384 25.488H95.8944ZM90.9984 32.508L96.0384 22.176L97.8384 25.488L94.5984 32.508H90.9984Z" fill="#0066CC"/>
<path d="M123.783 25.704C121.815 25.704 120.135 25.344 118.743 24.624C117.351 23.904 116.115 22.86 115.035 21.492L117.339 19.188C118.131 20.292 119.043 21.132 120.075 21.708C121.107 22.26 122.379 22.536 123.891 22.536C125.379 22.536 126.567 22.212 127.455 21.564C128.367 20.916 128.823 20.028 128.823 18.9C128.823 17.964 128.607 17.208 128.175 16.632C127.743 16.056 127.155 15.588 126.411 15.228C125.691 14.844 124.899 14.508 124.035 14.22C123.171 13.908 122.307 13.584 121.443 13.248C120.579 12.888 119.787 12.456 119.067 11.952C118.347 11.424 117.759 10.74 117.303 9.9C116.871 9.06 116.655 8.004 116.655 6.732C116.655 5.316 116.991 4.116 117.663 3.132C118.359 2.124 119.295 1.356 120.471 0.828C121.671 0.276 123.015 0 124.503 0C126.135 0 127.599 0.324 128.895 0.972C130.191 1.596 131.247 2.424 132.063 3.456L129.759 5.76C129.015 4.896 128.211 4.248 127.347 3.816C126.507 3.384 125.535 3.168 124.431 3.168C123.087 3.168 122.019 3.468 121.227 4.068C120.435 4.644 120.039 5.46 120.039 6.516C120.039 7.356 120.255 8.04 120.687 8.568C121.143 9.072 121.731 9.504 122.451 9.864C123.171 10.224 123.963 10.56 124.827 10.872C125.715 11.16 126.591 11.484 127.455 11.844C128.319 12.204 129.111 12.66 129.831 13.212C130.551 13.764 131.127 14.484 131.559 15.372C132.015 16.236 132.243 17.328 132.243 18.648C132.243 20.856 131.475 22.584 129.939 23.832C128.427 25.08 126.375 25.704 123.783 25.704Z" fill="#0066CC"/>
<path d="M143.253 25.704C141.693 25.704 140.277 25.32 139.005 24.552C137.733 23.76 136.725 22.692 135.981 21.348C135.261 20.004 134.901 18.492 134.901 16.812C134.901 15.132 135.261 13.62 135.981 12.276C136.725 10.932 137.721 9.864 138.969 9.072C140.241 8.28 141.669 7.884 143.253 7.884C144.549 7.884 145.701 8.16 146.709 8.712C148.806 9.78445 150.103 11.8847 150.237 14.22C150.237 16.9688 150.774 20.2122 149.193 22.644C148.593 23.604 147.777 24.36 146.745 24.912C145.737 25.44 144.573 25.704 143.253 25.704ZM143.793 22.644C145.401 22.644 146.697 22.104 147.681 21.024C148.665 19.92 149.157 18.516 149.157 16.812C149.157 15.636 148.929 14.616 148.473 13.752C148.041 12.864 147.417 12.18 146.601 11.7C145.785 11.196 144.837 10.944 143.757 10.944C142.677 10.944 141.717 11.196 140.877 11.7C140.061 12.204 139.413 12.9 138.933 13.788C138.477 14.652 138.249 15.648 138.249 16.776C138.249 17.928 138.477 18.948 138.933 19.836C139.413 20.7 140.073 21.384 140.913 21.888C141.753 22.392 142.713 22.644 143.793 22.644Z" fill="#0066CC"/>
<path d="M198.058 25.488L190.642 8.244H194.242L199.75 21.744H198.598L204.394 8.244H207.994L200.002 25.488H198.058ZM193.162 32.508L198.202 22.176L200.002 25.488L196.762 32.508H193.162Z" fill="#0066CC"/>
<path d="M167.734 11.173C167.965 10.8716 168.281 10.6459 168.641 10.5252C169.486 10.2414 170.395 10.7349 170.618 11.5988L170.705 11.9366C170.89 12.6558 170.718 13.4202 170.243 13.9907L165.971 19.1161L162.214 24.0276C161.746 24.6405 161.018 25 160.246 25C159.512 25 158.816 24.6745 158.346 24.1113L153.445 18.2476C153.158 17.9036 153 17.4695 153 17.0212C153 15.9778 154.015 15.2355 155.009 15.5513L155.098 15.5795C155.457 15.6934 155.776 15.9063 156.019 16.1937L160.045 20.9569C160.098 21.0188 160.194 21.0165 160.243 20.9521L167.734 11.173Z" fill="#67BA07"/>
<path d="M186.734 11.173C186.965 10.8716 187.281 10.6459 187.641 10.5252C188.486 10.2414 189.395 10.7349 189.618 11.5988L189.705 11.9366C189.89 12.6558 189.718 13.4202 189.243 13.9907L184.971 19.1161L181.214 24.0276C180.746 24.6405 180.018 25 179.246 25C178.512 25 177.816 24.6745 177.346 24.1113L172.445 18.2476C172.158 17.9036 172 17.4695 172 17.0212C172 15.9778 173.015 15.2355 174.009 15.5513L174.098 15.5795C174.457 15.6934 174.776 15.9063 175.019 16.1937L179.045 20.9569C179.098 21.0188 179.194 21.0165 179.243 20.9521L186.734 11.173Z" fill="#67BA07"/>
<path d="M152 32H197L196.083 33.529C195.721 34.1314 195.07 34.5 194.368 34.5H152V32Z" fill="#0066CC"/>
</svg>
